# xmcd CD database file
#
# Track frame offsets:
#	182
#	17397
#	34295
#	45390
#	60940
#	78205
#	88085
#	104555
#	122255
#	131125
#	143900
#	157855
#	172695
#	184925
#	200195
#
# Disc length: 2829 seconds
#
# Revision: 0
# Processed by: cddbd v1.5.1PL0 Copyright (c) Steve Scherf et al.
# Submitted via: CDex 1.51
#
DISCID=ba0b0b0f
DTITLE=Reg Lindsay - No Slowin' Down
DYEAR=1900
DGENRE=Country
TTITLE0=Murrumbidgee Man
TTITLE1=Country Joe and Mickey Finn
TTITLE2=Simple Song
TTITLE3=Love Catch fire
TTITLE4=No Slowin' Down
TTITLE5=Blue Mountain Home
TTITLE6=Comin' Down is Easy
TTITLE7=He's Grown Old Playin' Cowboy
TTITLE8=Love Goes to Hell
TTITLE9=Fletcher's Place
TTITLE10=Life out on the Road
TTITLE11=Without Love
TTITLE12=You're the One
TTITLE13=Looking At a loser
TTITLE14=Wild and Wooly Ways
EXTD=
EXTT0=
EXTT1=
EXTT2=
EXTT3=
EXTT4=
EXTT5=
EXTT6=
EXTT7=
EXTT8=
EXTT9=
EXTT10=
EXTT11=
EXTT12=
EXTT13=
EXTT14=
PLAYORDER=
